<svg width="240" height="82" viewBox="0 0 240 82" fill="none" xmlns="http://www.w3.org/2000/svg">
<path fill-rule="evenodd" clip-rule="evenodd" d="M12.3855 29.8424C-1.46139 24.5901 -0.944117 7.75901 1.04537 0C2.1857 11.4033 18.5769 15.1811 27.8451 17.3173L27.8465 17.3176L27.8477 17.3179C28.2805 17.4176 28.6978 17.5138 29.0972 17.607C36.299 19.2874 39.0592 24.0576 42.3489 29.7428L42.349 29.7428L42.3493 29.7433L42.3493 29.7434C43.149 31.1254 43.98 32.5614 44.9136 34.0203C49.6884 41.4809 45.8089 40.2872 44.9136 39.6903C44.0184 39.0935 41.3326 36.1093 35.3641 28.9471C29.3956 21.7849 20.7413 21.4865 17.7571 23.8739C15.3474 25.8017 17.0239 26.1728 22.3153 27.3441C23.5768 27.6234 25.0438 27.9481 26.7098 28.3502C33.6332 30.0214 30.7883 31.434 28.5003 31.9313C19.1895 31.9313 13.8776 30.5387 12.3855 29.8424ZM34.7115 37.3097C32.409 33.9026 33.7375 31.1424 34.4688 29.8424C34.79 33.2147 35.6297 35.1756 36.2438 36.6086C36.8271 37.9696 35.5406 38.5365 34.7115 37.3097ZM35.3641 30.4392C35.9609 33.7219 36.9159 38.6757 40.7357 40.5856C41.432 40.884 44.1278 40.9304 42.5263 38.7951C41.3095 37.1728 39.2201 34.8155 37.4752 32.847L37.4751 32.847C36.6523 31.9186 35.906 31.0768 35.3641 30.4392ZM23.2251 50.8811C22.6282 47.5984 21.6733 42.6446 17.8535 40.7347C17.1571 40.4363 14.4614 40.3899 16.0629 42.5252C17.2797 44.1475 19.3691 46.5048 21.114 48.4733L21.1142 48.4735L21.1149 48.4743C21.9374 49.4022 22.6833 50.2437 23.2251 50.8811ZM46.2037 51.4779C60.0506 56.7302 59.5333 73.5613 57.5438 81.3203C56.4035 69.917 40.0123 66.1392 30.7442 64.0031L30.7441 64.003L30.7427 64.0027L30.7415 64.0024L30.7285 63.9994C30.3003 63.9007 29.8874 63.8056 29.492 63.7133C22.2902 62.0329 19.5299 57.2627 16.2402 51.5775L16.2402 51.5775C15.4404 50.1953 14.6093 48.7591 13.6755 47.3C8.90075 39.8394 12.7803 41.0331 13.6755 41.63C14.5708 42.2268 17.2566 45.211 23.2251 52.3732C29.1936 59.5354 37.8478 59.8338 40.8321 57.4464C43.2418 55.5186 41.5653 55.1475 36.2739 53.9762L36.2735 53.9761L36.2721 53.9758L36.2709 53.9755C35.0101 53.6964 33.5441 53.3719 31.8794 52.9701C24.9559 51.2989 27.8009 49.8863 30.0888 49.389C39.3996 49.389 44.7116 50.7816 46.2037 51.4779ZM23.8776 44.0106C26.1802 47.4177 24.8516 50.1779 24.1204 51.4779C23.7992 48.1056 22.9595 46.1447 22.3454 44.7117C21.7621 43.3507 23.0485 42.7838 23.8776 44.0106Z" fill="url(#paint0_linear)"/>
<path d="M102.125 35.9276C102.125 38.105 101.411 39.859 99.9837 41.1896C98.5563 42.5203 96.4152 43.1856 93.5604 43.1856H88.4435V54H85.9032V28.6333H93.5604C96.391 28.6333 98.52 29.2986 99.9474 30.6292C101.399 31.9599 102.125 33.726 102.125 35.9276ZM93.5604 41.0082C97.5281 41.0082 99.512 39.3146 99.512 35.9276C99.512 34.234 99.0402 32.9518 98.0966 32.0808C97.1531 31.2099 95.641 30.7744 93.5604 30.7744H88.4435V41.0082H93.5604ZM105.226 44.0565C105.226 42.0243 105.625 40.2461 106.423 38.7219C107.246 37.1735 108.371 35.9881 109.798 35.1655C111.25 34.3187 112.883 33.8953 114.698 33.8953C116.585 33.8953 118.206 34.3308 119.56 35.2018C120.939 36.0727 121.931 37.1856 122.536 38.5405V34.1857H125.077V54H122.536V49.6089C121.907 50.9637 120.903 52.0887 119.524 52.9839C118.169 53.8548 116.548 54.2903 114.661 54.2903C112.871 54.2903 111.25 53.8669 109.798 53.0202C108.371 52.1734 107.246 50.9758 106.423 49.4275C105.625 47.8791 105.226 46.0888 105.226 44.0565ZM122.536 44.0928C122.536 42.4961 122.21 41.0929 121.556 39.8832C120.903 38.6735 120.008 37.7421 118.871 37.0889C117.758 36.4356 116.524 36.109 115.169 36.109C113.766 36.109 112.508 36.4235 111.395 37.0526C110.282 37.6816 109.399 38.6009 108.746 39.8106C108.117 40.9961 107.803 42.4114 107.803 44.0565C107.803 45.6775 108.117 47.1049 108.746 48.3388C109.399 49.5484 110.282 50.4799 111.395 51.1331C112.508 51.7621 113.766 52.0766 115.169 52.0766C116.524 52.0766 117.758 51.75 118.871 51.0968C120.008 50.4436 120.903 49.5121 121.556 48.3025C122.21 47.0928 122.536 45.6896 122.536 44.0928ZM137.698 54.2903C135.424 54.2903 133.561 53.7702 132.11 52.7298C130.682 51.6653 129.884 50.2258 129.715 48.4113H132.327C132.448 49.5242 132.969 50.4315 133.888 51.1331C134.831 51.8105 136.09 52.1492 137.662 52.1492C139.041 52.1492 140.118 51.8226 140.892 51.1694C141.69 50.5162 142.089 49.7057 142.089 48.7379C142.089 48.0605 141.872 47.5041 141.436 47.0686C141.001 46.6331 140.444 46.2944 139.767 46.0525C139.114 45.7864 138.219 45.5081 137.081 45.2178C135.606 44.8307 134.408 44.4436 133.489 44.0565C132.569 43.6694 131.783 43.1009 131.13 42.3509C130.501 41.5767 130.186 40.5485 130.186 39.2663C130.186 38.2985 130.477 37.4034 131.057 36.5808C131.638 35.7582 132.461 35.105 133.525 34.6211C134.59 34.1373 135.799 33.8953 137.154 33.8953C139.283 33.8953 141.001 34.4397 142.307 35.5284C143.614 36.5929 144.315 38.0687 144.412 39.9558H141.872C141.799 38.7945 141.339 37.863 140.493 37.1614C139.67 36.4356 138.533 36.0727 137.081 36.0727C135.799 36.0727 134.759 36.3752 133.961 36.98C133.162 37.5848 132.763 38.3348 132.763 39.23C132.763 40.0042 132.993 40.6453 133.452 41.1533C133.936 41.6372 134.529 42.0243 135.231 42.3146C135.932 42.5807 136.876 42.8832 138.061 43.2219C139.489 43.609 140.626 43.984 141.473 44.3469C142.319 44.7098 143.045 45.242 143.65 45.9436C144.255 46.6452 144.569 47.5767 144.593 48.7379C144.593 49.8025 144.303 50.7581 143.723 51.6049C143.142 52.4274 142.331 53.0807 141.291 53.5645C140.251 54.0484 139.053 54.2903 137.698 54.2903ZM156.198 54.2903C153.924 54.2903 152.061 53.7702 150.609 52.7298C149.182 51.6653 148.383 50.2258 148.214 48.4113H150.827C150.948 49.5242 151.468 50.4315 152.387 51.1331C153.331 51.8105 154.589 52.1492 156.161 52.1492C157.541 52.1492 158.617 51.8226 159.391 51.1694C160.19 50.5162 160.589 49.7057 160.589 48.7379C160.589 48.0605 160.371 47.5041 159.936 47.0686C159.5 46.6331 158.944 46.2944 158.266 46.0525C157.613 45.7864 156.718 45.5081 155.581 45.2178C154.105 44.8307 152.907 44.4436 151.988 44.0565C151.069 43.6694 150.283 43.1009 149.629 42.3509C149 41.5767 148.686 40.5485 148.686 39.2663C148.686 38.2985 148.976 37.4034 149.557 36.5808C150.137 35.7582 150.96 35.105 152.024 34.6211C153.089 34.1373 154.299 33.8953 155.653 33.8953C157.782 33.8953 159.5 34.4397 160.807 35.5284C162.113 36.5929 162.815 38.0687 162.911 39.9558H160.371C160.299 38.7945 159.839 37.863 158.992 37.1614C158.17 36.4356 157.032 36.0727 155.581 36.0727C154.299 36.0727 153.258 36.3752 152.46 36.98C151.662 37.5848 151.262 38.3348 151.262 39.23C151.262 40.0042 151.492 40.6453 151.952 41.1533C152.436 41.6372 153.028 42.0243 153.73 42.3146C154.432 42.5807 155.375 42.8832 156.561 43.2219C157.988 43.609 159.125 43.984 159.972 44.3469C160.819 44.7098 161.545 45.242 162.149 45.9436C162.754 46.6452 163.069 47.5767 163.093 48.7379C163.093 49.8025 162.803 50.7581 162.222 51.6049C161.641 52.4274 160.831 53.0807 159.79 53.5645C158.75 54.0484 157.553 54.2903 156.198 54.2903ZM202.341 54.254C199.994 54.254 197.865 53.7097 195.954 52.621C194.042 51.5081 192.53 49.9718 191.418 48.0121C190.329 46.0283 189.784 43.7904 189.784 41.2985C189.784 38.8066 190.329 36.5808 191.418 34.6211C192.53 32.6373 194.042 31.101 195.954 30.0123C197.865 28.8994 199.994 28.343 202.341 28.343C204.712 28.343 206.853 28.8994 208.764 30.0123C210.675 31.101 212.175 32.6373 213.264 34.6211C214.353 36.5808 214.897 38.8066 214.897 41.2985C214.897 43.7904 214.353 46.0283 213.264 48.0121C212.175 49.9718 210.675 51.5081 208.764 52.621C206.853 53.7097 204.712 54.254 202.341 54.254ZM202.341 52.0403C204.228 52.0403 205.921 51.6049 207.421 50.7339C208.921 49.8629 210.107 48.617 210.978 46.996C211.849 45.3509 212.284 43.4517 212.284 41.2985C212.284 39.1453 211.849 37.2582 210.978 35.6373C210.107 34.0163 208.921 32.7703 207.421 31.8994C205.921 31.0284 204.228 30.5929 202.341 30.5929C200.454 30.5929 198.76 31.0284 197.26 31.8994C195.76 32.7703 194.575 34.0163 193.704 35.6373C192.833 37.2582 192.397 39.1453 192.397 41.2985C192.397 43.4517 192.833 45.3509 193.704 46.996C194.575 48.617 195.76 49.8629 197.26 50.7339C198.76 51.6049 200.454 52.0403 202.341 52.0403ZM228.836 33.8228C231.207 33.8228 233.142 34.5607 234.642 36.0364C236.142 37.488 236.892 39.605 236.892 42.3872V54H234.388V42.6775C234.388 40.5243 233.844 38.8792 232.755 37.7421C231.69 36.605 230.227 36.0364 228.364 36.0364C226.453 36.0364 224.928 36.6413 223.791 37.8509C222.654 39.0606 222.086 40.8388 222.086 43.1856V54H219.545V34.1857H222.086V37.5606C222.715 36.351 223.622 35.4316 224.807 34.8026C225.993 34.1494 227.336 33.8228 228.836 33.8228Z" fill="#242424"/>
<path d="M174.407 28.7784L169.943 54H165.806L170.27 28.7784H174.407ZM181.181 48.4476C181.133 48.7863 181.109 49.0041 181.109 49.1008C181.109 49.6089 181.266 49.9839 181.58 50.2258C181.895 50.4436 182.415 50.5524 183.141 50.5524H185.681L185.064 54H181.798C180.201 54 178.98 53.6855 178.133 53.0565C177.286 52.4032 176.863 51.375 176.863 49.9718C176.863 49.4396 176.911 48.9315 177.008 48.4476L178.967 37.3792H176.609L177.189 34.0042H179.584L180.455 29.0325H184.629L183.758 34.0042H188.584L188.004 37.3792H183.141L181.181 48.4476Z" fill="#F9AC1B"/>
<defs>
<linearGradient id="paint0_linear" x1="58.5892" y1="81.6407" x2="-1.90503e-05" y2="1.36714e-05" gradientUnits="userSpaceOnUse">
<stop stop-color="#F19347"/>
<stop offset="1" stop-color="#FCB40C"/>
</linearGradient>
</defs>
</svg>
